# xmcd CD database file
#
# Track frame offsets:
#	150
#	19035
#	40945
#
# Disc length: 797 seconds
#
# Revision: 0
# Processed by: cddbd v1.5.1PL0 Copyright (c) Steve Scherf et al.
# Submitted via: CDex 1.51
#
DISCID=1a031b03
DTITLE=峠　恵子 - こわれやすい物語／峠　恵子
DYEAR=1994
DGENRE=J-POP
TTITLE0=こわれやすい物語
TTITLE1=今までと違う朝
TTITLE2=こわれやすい物語（カラオケ）
EXTD=YEAR: 1994
EXTT0=
EXTT1=
EXTT2=
PLAYORDER=
